<?xml version="1.0" encoding="utf-8"?>
<!-- Svg Vector Icons : http://www.onlinewebfonts.com/icon -->
<!DOCTYPE svg PUBLIC "-//W3C//DTD SVG 1.1//EN" "http://www.w3.org/Graphics/SVG/1.1/DTD/svg11.dtd">
<svg version="1.1" xmlns="http://www.w3.org/2000/svg" xmlns:xlink="http://www.w3.org/1999/xlink" x="0px" y="0px" viewBox="0 0 1000 1000" enable-background="new 0 0 1000 1000" xml:space="preserve">
<metadata> Svg Vector Icons : http://www.onlinewebfonts.com/icon </metadata>
<g><path d="M500,225.6C178.5,225.6,10,462.4,10,500c0,37.6,168.5,274.4,490,274.4S990,537.6,990,500C990,462.4,821.5,225.6,500,225.6z M500,711.1c-120.2,0-217.8-94.5-217.8-211.1c0-116.6,97.5-211.1,217.8-211.1c120.3,0,217.8,94.5,217.8,211.1C717.8,616.6,620.3,711.1,500,711.1z M500,500c-19.9-21.9,32.5-105.5,0-105.5c-60.1,0-108.9,47.2-108.9,105.5c0,58.3,48.8,105.5,108.9,105.5c60.2,0,108.9-47.3,108.9-105.5C608.9,473.2,517,518.6,500,500z"/></g>
</svg>